<?xml version="1.0" encoding="utf-8"?>
<!-- Generator: Adobe Illustrator 26.3.1, SVG Export Plug-In . SVG Version: 6.00 Build 0)  -->
<svg version="1.1" id="Layer_1" xmlns="http://www.w3.org/2000/svg" xmlns:xlink="http://www.w3.org/1999/xlink" x="0px" y="0px"
	 viewBox="0 0 32 32" style="enable-background:new 0 0 32 32;" xml:space="preserve">
<style type="text/css">
	.st0{fill:#4C566A;}
	.st1{fill:#81A1C1;}
	.st2{fill:#D8DEE9;}
</style>
<path class="st0" d="M29.3,21.2c0.4,0.7,0.2,1.6-0.5,2l-12,7c-0.5,0.3-1,0.3-1.5,0l-12-7c-0.7-0.4-1-1.3-0.5-2.1
	c0.4-0.7,1.3-1,2.1-0.5l0,0L16,27.3l11.3-6.6C28,20.3,28.9,20.5,29.3,21.2z"/>
<path class="st1" d="M27.2,14.7L16,21.3L4.8,14.7c-0.7-0.4-1.6-0.1-2,0.6c-0.4,0.7-0.1,1.6,0.5,2l12,7c0.5,0.3,1,0.3,1.5,0l12-7
	c0.7-0.4,1-1.3,0.5-2.1C28.9,14.5,28,14.3,27.2,14.7L27.2,14.7z"/>
<path class="st2" d="M2.5,10c0-0.5,0.3-1,0.8-1.3l12-7c0.5-0.3,1-0.3,1.5,0l12,7c0.7,0.4,1,1.3,0.5,2.1c-0.1,0.2-0.3,0.4-0.5,0.5
	l-12,7c-0.5,0.3-1,0.3-1.5,0l-12-7C2.8,11,2.5,10.5,2.5,10z M7,10l9,5.3l9-5.3l-9-5.3L7,10z"/>
</svg>
